<svg width="100" height="39" viewBox="0 0 100 39" fill="none" xmlns="http://www.w3.org/2000/svg">
<g clip-path="url(#clip0_132_611)">
<path d="M17.4308 35.627C17.3219 35.744 17.2782 35.8172 17.1621 35.9343L17.3073 36.0953C17.4721 36.2725 17.5881 36.4899 17.6442 36.726C17.7002 36.9621 17.6942 37.2089 17.6269 37.4419C17.6269 37.4419 17.7795 37.3614 17.8666 37.0833C17.9099 36.8751 17.9076 36.6598 17.8601 36.4526C17.8124 36.2453 17.7204 36.0509 17.5906 35.8831C17.5426 35.7945 17.4892 35.709 17.4308 35.627Z" fill="#061F2F"/>
<path d="M18.2007 29.9187C17.9265 30.1171 17.6404 30.298 17.3437 30.4603C17.6276 30.6122 17.8996 30.7859 18.1572 30.9799C18.2298 31.0238 17.9102 31.5068 17.5907 31.7117C17.2711 31.9167 16.8643 32.2606 16.5448 32.5387C16.1612 32.8079 15.8515 33.1704 15.6441 33.5925C15.5564 33.822 15.5466 34.0744 15.6162 34.31C15.6858 34.5457 15.831 34.7515 16.0291 34.8952C16.1817 35.0196 16.4286 35.2977 16.5593 35.4148C16.5593 35.3416 16.7845 35.2099 16.8498 35.0635C16.1235 34.4634 15.695 33.7316 16.9442 33.073C17.2856 32.8242 17.6705 32.59 18.0555 32.2826C18.2643 32.1219 18.4565 31.9404 18.6292 31.741C18.7668 31.6095 18.8639 31.441 18.9091 31.2554C18.9541 31.0698 18.9452 30.875 18.8834 30.6945C18.8205 30.5225 18.7236 30.3652 18.5988 30.2319C18.474 30.0986 18.3238 29.9921 18.1572 29.9187" fill="#061F2F"/>
<path d="M19.2104 24.2543C19.1595 24.2543 18.0483 24.7227 17.569 24.9496L18.259 25.1545C18.3859 25.1878 18.5097 25.2319 18.6293 25.2862C18.6012 25.3257 18.5669 25.3603 18.5276 25.3887C18.353 25.5463 18.1512 25.6704 17.9321 25.7546C17.4165 26.0034 16.8717 26.245 16.3487 26.4865C15.8258 26.728 15.2884 26.8524 14.7219 27.6281C14.6046 27.8382 14.5582 28.0808 14.5897 28.3198C14.6211 28.5587 14.7286 28.7807 14.8962 28.9527C15.1055 29.1961 15.3505 29.4058 15.6225 29.5748L15.8839 29.7358C16.1672 29.5089 16.494 29.3991 16.7846 29.2015C16.5594 29.0698 16.3343 28.9454 16.1309 28.799C15.6951 28.5356 15.4045 28.0672 15.5499 28.1257C15.9146 27.817 16.3268 27.5698 16.77 27.3939C17.2857 27.1597 17.8159 26.9402 18.3606 26.6621C18.6915 26.5347 18.9985 26.3516 19.2685 26.1205C19.4331 26.0125 19.567 25.8631 19.6572 25.6872C19.7473 25.5113 19.7904 25.3147 19.7824 25.1169C19.7743 24.9192 19.7153 24.7268 19.6112 24.5589C19.5072 24.391 19.3615 24.2533 19.1886 24.1592" fill="#061F2F"/>
<path d="M20.1547 18.4431C19.8609 18.2957 19.5576 18.1686 19.2468 18.0625C18.6347 18.3976 17.9986 18.6862 17.3439 18.9261C17.6707 19.0578 18.0121 19.1822 18.3825 19.314C18.7747 19.4401 19.1601 19.5867 19.5373 19.753L19.8133 19.892C19.6826 19.9433 19.5373 19.9872 19.3994 20.0311C18.9418 20.1555 18.4478 20.2506 17.9467 20.3385C16.7684 20.4026 15.6105 20.6751 14.5259 21.1435C14.1478 21.3127 13.8253 21.5868 13.5962 21.9339C13.5142 22.0765 13.4627 22.2349 13.4452 22.3987C13.4277 22.5626 13.4445 22.7284 13.4946 22.8853C13.59 23.1199 13.7365 23.33 13.9231 23.5001C14.1916 23.7219 14.4869 23.9087 14.8019 24.0563C15.1386 23.9664 15.4668 23.8463 15.7824 23.6977L15.9784 23.6611L16.5305 23.4342L16.0947 23.2878C15.614 23.1359 15.1622 22.9033 14.7583 22.5999C14.8703 22.5106 14.9922 22.4344 15.1214 22.373C16.1024 22.0169 17.1304 21.8097 18.1719 21.7583C18.7199 21.6859 19.2631 21.5809 19.7988 21.4436C20.0745 21.3677 20.3459 21.2774 20.6122 21.1728C20.8443 21.0994 21.0543 20.9684 21.2231 20.792C21.3919 20.6156 21.514 20.3992 21.5782 20.1628C21.7888 19.2701 20.3798 18.5382 20.1547 18.4431Z" fill="#061F2F"/>
<path d="M17.7215 32.7144C17.5617 32.8534 17.322 33.0876 17.2348 33.1388C18.9272 34.1268 16.8354 35.0124 16.436 35.8833C16.3074 36.0517 16.2167 36.2462 16.1704 36.4535C16.124 36.6608 16.1229 36.8758 16.1672 37.0835C16.2544 37.3616 16.3924 37.4494 16.3997 37.4421C16.3378 37.2107 16.3333 36.9677 16.3865 36.7341C16.4396 36.5006 16.5489 36.2839 16.7046 36.1028C17.1047 35.6679 17.5368 35.2642 17.9975 34.8953C18.1886 34.7457 18.329 34.54 18.3992 34.3067C18.4695 34.0735 18.4661 33.8239 18.3897 33.5926C18.2189 33.2487 17.9701 32.9504 17.6634 32.7217" fill="#061F2F"/>
<path d="M18.499 26.8813C18.499 26.8813 17.6929 27.3131 17.3224 27.4815C17.7374 27.641 18.1247 27.8658 18.47 28.1475C18.608 28.1109 18.3247 28.5573 17.8889 28.8208C17.4532 29.0842 16.9956 29.3477 16.5526 29.6038C16.1095 29.86 15.4559 29.8527 15.1363 30.6943C15.084 30.8735 15.0828 31.064 15.1329 31.244C15.183 31.4238 15.2824 31.5859 15.4196 31.7116C15.5922 31.911 15.7845 32.0924 15.9933 32.2531L16.2112 32.4215L16.8721 32.0189L16.4581 31.7116C16.1386 31.492 15.819 30.9797 15.8844 30.9797C16.2215 30.758 16.5762 30.5647 16.9447 30.4016C17.4096 30.1527 17.8962 29.9405 18.3974 29.6185C18.6709 29.4517 18.9162 29.2417 19.1236 28.9964C19.2934 28.826 19.4031 28.6041 19.4358 28.3649C19.4687 28.1257 19.4227 27.8823 19.3052 27.6717C19.0947 27.3547 18.8136 27.0917 18.4845 26.9033" fill="#061F2F"/>
<path d="M20.0602 21.4658C19.6898 21.6049 18.2155 21.8976 17.8813 21.9708C18.2525 22.0399 18.6136 22.1555 18.9563 22.3148C19.0855 22.3762 19.2073 22.4523 19.3194 22.5416C18.9146 22.8435 18.4631 23.0759 17.983 23.2296C17.4674 23.4199 16.9008 23.5589 16.3198 23.7419C16.0293 23.8297 15.7461 23.9175 15.4482 24.02C15.1505 24.1224 14.7219 24.1078 14.3806 24.7518C14.2623 25.0036 14.2376 25.2897 14.3109 25.5583C14.3841 25.8269 14.5506 26.0601 14.78 26.2155C14.9967 26.4066 15.2418 26.5622 15.5064 26.6766C15.9204 26.4936 16.3489 26.34 16.7628 26.1643L16.8718 26.0984L16.1455 25.7545C15.9275 25.6714 15.7258 25.5499 15.5499 25.3959C15.5119 25.3633 15.4778 25.3265 15.4482 25.2861C15.5673 25.2306 15.6914 25.1865 15.8187 25.1544C16.0946 25.0665 16.3706 24.986 16.6539 24.9128C17.2131 24.7518 17.7942 24.6201 18.397 24.4152C19.0433 24.2236 19.649 23.9135 20.1837 23.5004C20.3703 23.3302 20.5168 23.1202 20.6122 22.8856C20.6623 22.7286 20.679 22.5629 20.6615 22.399C20.6441 22.2351 20.5926 22.0768 20.5105 21.9342C20.3989 21.7563 20.2591 21.5981 20.0965 21.4658" fill="#061F2F"/>
<path d="M21.2372 12.5594C20.8533 12.3532 20.4296 12.2333 19.9952 12.2082C19.6974 12.1642 18.9203 11.9666 18.6589 12.1496C18.3973 12.3326 18.6588 13.0205 18.8767 13.2254C19.5021 13.7118 20.2148 14.0722 20.9757 14.2866C21.2444 14.3818 21.9272 14.7696 21.3752 15.1502C20.848 15.4904 20.2913 15.7819 19.712 16.0211C19.3125 16.2041 18.4482 16.5919 17.2353 17.1042C16.6252 17.3531 15.9279 17.6458 15.1653 17.9239C14.73 18.0731 14.3033 18.2465 13.8871 18.4434C13.6546 18.5532 12.2383 19.2338 12.4999 20.1047C12.563 20.3425 12.6847 20.5603 12.8535 20.7382C13.0223 20.9159 13.2329 21.048 13.4658 21.122L13.9887 21.2977C14.0191 21.2624 14.0532 21.2304 14.0904 21.2025C14.57 20.8064 15.1095 20.4901 15.6882 20.2657C15.3251 20.1926 14.962 20.1194 14.6425 20.0316C14.5044 19.9876 14.3591 19.9437 14.2284 19.8925L14.5044 19.7535C14.8816 19.5871 15.267 19.4406 15.6592 19.3143C16.4654 19.0289 17.1772 18.7435 17.7945 18.4947C19.0366 17.9898 19.9226 17.6019 20.3365 17.4189C21.2268 17.0721 22.032 16.5353 22.6971 15.8455C22.8782 15.607 22.9961 15.3259 23.0392 15.0288C23.0824 14.7317 23.0497 14.4284 22.944 14.1476C22.5812 13.4283 21.9761 12.8627 21.2372 12.5521" fill="#061F2F"/>
<path d="M16.705 0.242188C16.3503 0.242188 16.0034 0.348205 15.7084 0.546833C15.4134 0.745462 15.1835 1.02778 15.0477 1.35809C14.9119 1.68839 14.8764 2.05186 14.9456 2.40251C15.0149 2.75316 15.1857 3.07525 15.4365 3.32806C15.6875 3.58087 16.0071 3.75304 16.3551 3.82278C16.7031 3.89253 17.0637 3.85673 17.3915 3.71991C17.7194 3.58309 17.9996 3.3514 18.1967 3.05414C18.3938 2.75687 18.499 2.40737 18.499 2.04985C18.4971 1.57102 18.3075 1.11235 17.9714 0.773769C17.6355 0.435183 17.1803 0.244114 16.705 0.242188Z" fill="#061F2F"/>
<path d="M17.2791 4.11352H16.088C16.0526 4.10732 16.0162 4.10902 15.9814 4.11848C15.9466 4.12795 15.9144 4.14495 15.8868 4.16831C15.8593 4.19167 15.8372 4.22081 15.8219 4.25369C15.8067 4.28658 15.7988 4.32242 15.7988 4.35869C15.7988 4.39497 15.8067 4.43081 15.8219 4.4637C15.8372 4.49658 15.8593 4.52572 15.8868 4.54908C15.9144 4.57243 15.9466 4.58944 15.9814 4.59891C16.0162 4.60837 16.0526 4.61007 16.088 4.60386H17.2791C17.3146 4.61007 17.351 4.60837 17.3858 4.59891C17.4205 4.58944 17.4528 4.57243 17.4804 4.54908C17.5079 4.52572 17.53 4.49658 17.5453 4.4637C17.5604 4.43081 17.5683 4.39497 17.5683 4.35869C17.5683 4.32242 17.5604 4.28658 17.5453 4.25369C17.53 4.22081 17.5079 4.19167 17.4804 4.16831C17.4528 4.14495 17.4205 4.12795 17.3858 4.11848C17.351 4.10902 17.3146 4.10732 17.2791 4.11352Z" fill="#061F2F"/>
<path d="M16.7051 4.86768C16.4873 4.86768 16.3057 4.94086 16.3057 5.26288L16.371 17.2139L16.7778 16.9943C16.8397 16.9649 16.9059 16.9451 16.9739 16.9358H17.0465L17.0901 5.29947C17.0901 4.97745 16.9158 4.90427 16.6907 4.90427" fill="#061F2F"/>
<path d="M17.061 36.1025L16.8213 36.2416V38.5542C16.8312 38.612 16.8611 38.6644 16.9055 38.7022C16.9501 38.7399 17.0064 38.7606 17.0645 38.7606C17.1228 38.7606 17.179 38.7399 17.2236 38.7022C17.2681 38.6644 17.298 38.612 17.3079 38.5542V36.1977C17.2603 36.1924 17.2139 36.1801 17.1699 36.1611C17.1276 36.1498 17.0864 36.1351 17.0464 36.1172" fill="#061F2F"/>
<path d="M16.705 23.5224C16.9042 23.4429 17.1155 23.3984 17.3296 23.3906V22.1318C17.119 22.1731 16.9049 22.1927 16.6904 22.1904L16.705 23.5224Z" fill="#061F2F"/>
<path d="M17.09 30.6797C16.9592 30.7309 16.8358 30.7895 16.7051 30.8334V32.0262L16.7486 32.0701V32.1067C16.8601 32.0383 16.9797 31.9843 17.1045 31.9457H17.1844V30.7309H17.1045H17.01" fill="#061F2F"/>
<path d="M16.7044 33.7168V34.9317L16.7771 35.0049L16.8352 35.0488C16.9507 34.979 17.0881 34.9555 17.22 34.9829V33.4607H17.0094C16.9005 33.5558 16.7988 33.6583 16.6826 33.7461" fill="#061F2F"/>
<path d="M17.2203 27.8036C17.1493 27.7726 17.0851 27.7279 17.0314 27.6719L16.6973 27.7743V29.1795C16.777 29.2019 16.8496 29.2448 16.908 29.3039C17.0164 29.266 17.1283 29.2389 17.242 29.2234V27.8329H17.1839L17.2203 27.8036Z" fill="#061F2F"/>
<path d="M16.7049 26.0619C16.7422 26.0956 16.7741 26.1352 16.7992 26.179C16.8032 26.1984 16.8032 26.2182 16.7992 26.2376C16.937 26.1836 17.0776 26.1371 17.2205 26.0985H17.2858V25.03C17.0825 25.0959 16.8792 25.1471 16.6758 25.2057L16.7049 26.0619Z" fill="#061F2F"/>
<path d="M16.981 19.3657H16.7704L16.6396 19.4169V20.5659C16.8213 20.5147 17.0028 20.4708 17.1771 20.4122C17.218 20.4053 17.2597 20.4053 17.3005 20.4122V19.3218C17.1966 19.3515 17.0891 19.3663 16.981 19.3657Z" fill="#061F2F"/>
<path d="M14.141 7.45076C13.4147 7.09947 14.0684 6.60181 14.3225 6.14807C14.6474 5.6174 14.8045 4.99971 14.7729 4.377C14.6545 4.02942 14.4421 3.72201 14.1599 3.4893C13.8776 3.25659 13.5366 3.10781 13.175 3.05968C12.8252 3.01589 12.4703 3.0474 12.1334 3.15211C11.7967 3.25682 11.4857 3.43235 11.2213 3.6671C10.581 4.11015 9.89714 4.48539 9.18041 4.78683C6.62383 5.82606 2.75993 7.50199 0 7.76545C0.31798 8.18565 0.715231 8.53839 1.16893 8.80339C1.62262 9.0684 2.12382 9.24044 2.64372 9.30965C2.59287 9.8073 3.52254 10.3269 3.90747 10.4586C4.44595 10.6442 5.03508 10.61 5.5489 10.3635C5.70454 10.5977 5.9055 10.7977 6.13973 10.9516C6.37394 11.1056 6.63661 11.2103 6.91196 11.2595C7.18731 11.3087 7.4697 11.3014 7.74222 11.2379C8.01464 11.1746 8.27166 11.0563 8.49767 10.8904C8.55573 11.3442 9.3547 11.6223 9.71061 11.6735C10.265 11.7492 10.8294 11.6733 11.3448 11.4539C11.7297 11.3661 11.8895 11.6149 12.3035 11.7101C12.7321 11.832 13.1911 11.7794 13.5817 11.5637C13.7779 11.4612 13.7052 11.4027 13.9086 11.4173C14.1119 11.432 14.2208 11.5783 14.3662 11.6003C14.7729 11.6588 15.0416 11.3588 15.2667 11.0734C15.5727 10.5917 15.8167 10.0728 15.9931 9.52921V7.56054C15.3844 7.64154 14.766 7.60678 14.17 7.45808" fill="#061F2F"/>
<path d="M22.1007 3.6671C21.8362 3.43235 21.5254 3.25682 21.1885 3.15211C20.8518 3.0474 20.4967 3.01589 20.147 3.05968C19.7859 3.10663 19.4452 3.25509 19.1638 3.48806C18.8825 3.72103 18.672 4.02909 18.5564 4.377C18.5188 4.99931 18.6736 5.61807 18.9994 6.14807C19.2536 6.60181 19.8782 7.09947 19.181 7.45076C18.6088 7.59228 18.016 7.62946 17.4307 7.56054V9.67557C17.5916 10.17 17.8136 10.6422 18.0915 11.0807C18.1781 11.2427 18.3073 11.3775 18.4649 11.4705C18.6224 11.5634 18.8023 11.6109 18.9849 11.6076C19.1302 11.6076 19.319 11.4393 19.4425 11.4247C19.5659 11.41 19.5732 11.4686 19.7693 11.571C20.1599 11.7867 20.6189 11.8393 21.0476 11.7174C21.4615 11.6223 21.6286 11.3734 22.0063 11.4612C22.5218 11.6803 23.086 11.7561 23.6404 11.6808C23.9963 11.6003 24.8025 11.3515 24.8534 10.8977C25.0794 11.0636 25.3364 11.1819 25.6088 11.2453C25.8813 11.3087 26.1638 11.316 26.4391 11.2668C26.7144 11.2176 26.9771 11.1129 27.2113 10.959C27.4456 10.805 27.6465 10.605 27.8022 10.3708C28.3048 10.6167 28.882 10.6586 29.4145 10.4879C29.8068 10.3562 30.7364 9.83658 30.6782 9.33892C31.1981 9.26972 31.6994 9.09767 32.1531 8.83267C32.6068 8.56766 33.004 8.21492 33.322 7.79472C30.5621 7.53126 26.6982 5.85533 24.1416 4.8161C23.4256 4.51305 22.7419 4.13791 22.1007 3.69638" fill="#061F2F"/>
<path d="M12.3037 15.3255C11.7591 14.945 12.4345 14.5937 12.7033 14.4619C13.4659 14.2537 14.1812 13.8982 14.8095 13.4154C15.0346 13.2105 15.3833 12.5957 15.0274 12.3396C14.6715 12.0834 13.9815 12.3396 13.6838 12.3981C13.2516 12.4225 12.83 12.5425 12.4491 12.7494C11.7091 13.0613 11.1021 13.6263 10.735 14.3448C10.6306 14.6247 10.5985 14.9266 10.6417 15.2223C10.6849 15.518 10.802 15.7978 10.9819 16.0354C11.6474 16.7282 12.4556 17.2653 13.3496 17.6089L14.4173 18.0773C15.0441 17.8187 15.6575 17.528 16.2548 17.2064C15.1436 16.738 14.3447 16.3867 13.9743 16.2111C13.3934 15.97 12.8345 15.6786 12.3037 15.3402" fill="#061F2F"/>
</g>
<path d="M35.5763 18.9185V4.45415H38.3039V10.2812H44.6268V4.45415H47.3544V18.9185H44.6268V12.8021H38.3039V18.9185H35.5763ZM50.1657 18.9185V4.45415H52.8933V18.9185H50.1657ZM55.715 18.9185V4.45415H62.2859C63.9527 4.45415 65.2683 4.86741 66.2326 5.69395C67.2106 6.5067 67.6997 7.66385 67.6997 9.16538C67.6997 10.6669 67.2106 11.8309 66.2326 12.6575C65.2683 13.4702 63.9527 13.8766 62.2859 13.8766H58.4425V18.9185H55.715ZM58.4425 6.89242V11.4383H62.2032C63.1262 11.4383 63.815 11.2386 64.2696 10.8391C64.7379 10.4396 64.9721 9.88171 64.9721 9.16538C64.9721 8.44905 64.7379 7.89114 64.2696 7.49165C63.815 7.09216 63.1262 6.89242 62.2032 6.89242H58.4425ZM66.7401 18.9185L72.5878 4.45415H75.1914L81.0391 18.9185H78.1256L76.6792 15.1371H71.1001L69.6537 18.9185H66.7401ZM73.3524 9.22737L72.0299 12.6988H75.7493L74.4269 9.22737L74.2616 8.77278L73.8896 7.65696L73.5177 8.77278L73.3524 9.22737ZM81.9349 18.9185L87.7826 4.45415H90.3862L96.2339 18.9185H93.3204L91.874 15.1371H86.2949L84.8484 18.9185H81.9349ZM88.5472 9.22737L87.2247 12.6988H90.9441L89.6217 9.22737L89.4564 8.77278L89.0844 7.65696L88.7125 8.77278L88.5472 9.22737Z" fill="#061F2F"/>
<path d="M42.8566 31.0868L43.7516 31.7402C42.9561 33.2461 41.6775 34.2831 39.5466 34.2831C36.7907 34.2831 34.7592 32.0812 34.7592 29.1121C34.7592 26.1431 36.9611 23.9411 39.6177 23.9411C41.5781 23.9411 43.0697 24.9498 43.7658 26.4982L42.8424 27.1517C42.1321 25.6601 40.953 24.9924 39.5893 24.9924C37.5578 24.9924 35.9809 26.7823 35.9809 29.1121C35.9809 31.4419 37.4299 33.2319 39.575 33.2319C41.0525 33.2319 42.0611 32.621 42.8566 31.0868ZM52.2822 30.5611C52.2822 32.962 50.3644 34.2831 48.6029 34.2831C46.8413 34.2831 44.9235 32.962 44.9235 30.5611C44.9235 28.1603 46.8413 26.8392 48.6029 26.8392C50.3644 26.8392 52.2822 28.1603 52.2822 30.5611ZM48.6029 33.2887C50.0377 33.2887 51.1457 32.138 51.1457 30.5611C51.1457 28.9843 50.0377 27.8336 48.6029 27.8336C47.1681 27.8336 46.06 28.9843 46.06 30.5611C46.06 32.138 47.1681 33.2887 48.6029 33.2887ZM63.3851 28.7286V34.0842H62.277V29.1263C62.277 28.3308 61.8367 27.8336 60.9559 27.8336C60.0467 27.8336 59.2227 28.5297 59.2227 30.277V34.0842H58.1147V29.2542C58.1147 28.3592 57.6743 27.8336 56.8219 27.8336C55.8985 27.8336 55.0604 28.5581 55.0604 30.3054V34.0842H53.9523V27.038H55.0604V28.1603C55.3871 27.4784 56.1685 26.8392 57.1487 26.8392C58.0152 26.8392 58.7824 27.2511 59.0665 28.1745C59.5637 27.2938 60.3024 26.8392 61.2968 26.8392C62.5185 26.8392 63.3851 27.5779 63.3851 28.7286ZM65.3837 36.9823V27.038H66.4918V28.3024C66.918 27.4784 67.8698 26.8392 69.0205 26.8392C70.8672 26.8392 72.3447 28.274 72.3447 30.5611C72.3447 32.8483 70.8104 34.2831 68.9494 34.2831C67.884 34.2831 67.0032 33.8001 66.4918 32.962V36.9823H65.3837ZM68.8074 27.862C67.4436 27.862 66.4066 28.9274 66.4066 30.5611C66.4066 32.1948 67.4436 33.2603 68.8074 33.2603C70.1711 33.2603 71.2082 32.1948 71.2082 30.5611C71.2082 28.9274 70.1711 27.862 68.8074 27.862ZM74.0266 34.0842V24.14H75.1347V34.0842H74.0266ZM77.3007 34.0842V27.038H78.4088V34.0842H77.3007ZM77.187 25.8163V24.4241H78.5224V25.8163H77.187ZM86.4164 34.0842H85.3083C85.0952 33.8285 84.8821 33.4876 84.8821 32.692C84.4418 33.7149 83.5468 34.2831 82.4813 34.2831C81.0465 34.2831 80.1089 33.3739 80.1089 32.138C80.1089 30.7884 81.1886 30.0497 82.5382 29.8366L84.8821 29.4531V29.1405C84.8821 28.1887 84.2571 27.7768 83.22 27.7768C82.112 27.7768 81.5579 28.2882 81.5579 28.8706C81.5579 28.9416 81.5579 28.9701 81.5863 29.0837L80.6203 29.4104C80.5351 29.2116 80.5067 29.0269 80.5067 28.8422C80.5067 27.7768 81.5437 26.8392 83.22 26.8392C85.0668 26.8392 85.9902 27.7057 85.9902 29.1405V32.3227C85.9902 33.1324 86.0754 33.516 86.4164 34.0842ZM82.6092 33.2887C84.1008 33.2887 84.8821 31.9675 84.8821 30.5469V30.3338L82.737 30.7032C81.7568 30.8737 81.2454 31.3709 81.2454 32.0812C81.2454 32.8199 81.771 33.2887 82.6092 33.2887ZM93.9075 29.2968V34.0842H92.7994V29.4957C92.7994 28.3876 92.1033 27.8336 91.1089 27.8336C90.0293 27.8336 89.0633 28.7286 89.0633 30.1776V34.0842H87.9552V27.038H89.0633V28.274C89.5605 27.3932 90.4128 26.8392 91.4357 26.8392C92.6858 26.8392 93.9075 27.5637 93.9075 29.2968ZM95.0287 27.9188V27.038H96.2078V25.1344H97.3159V27.038H98.9353V27.9188H97.3159V32.1806C97.3159 32.9335 97.4579 33.3171 98.2819 33.3171C98.4381 33.3171 98.6654 33.2745 98.8075 33.2319L98.9069 34.1553C98.6654 34.2405 98.3955 34.2831 97.9693 34.2831C97.0601 34.2831 96.2078 33.8285 96.2078 32.3937V27.9188H95.0287Z" fill="#061F2F"/>
<defs>
<clipPath id="clip0_132_611">
<rect width="33.7037" height="39" fill="white" transform="translate(0 0.00146484)"/>
</clipPath>
</defs>
</svg>
